<?xml version="1.0" standalone="no"?>
<!DOCTYPE svg PUBLIC "-//W3C//DTD SVG 20010904//EN"
 "http://www.w3.org/TR/2001/REC-SVG-20010904/DTD/svg10.dtd">
<svg version="1.0" xmlns="http://www.w3.org/2000/svg"
 width="840.000000pt" height="1060.000000pt" viewBox="0 0 840.000000 1060.000000"
 preserveAspectRatio="xMidYMid meet">

<g transform="translate(0.000000,1060.000000) scale(0.100000,-0.100000)"
fill="#000000" stroke="none">
<path d="M497 10189 c-59 -14 -134 -56 -175 -98 -43 -44 -86 -127 -101 -192
-7 -29 -11 -1271 -11 -3695 0 -3610 0 -3653 20 -3716 38 -125 129 -219 243
-253 39 -12 106 -15 289 -15 l238 0 0 200 0 200 -195 0 -195 0 0 3590 0 3590
2795 0 2795 0 0 -200 0 -200 198 2 197 3 3 195 c1 111 -2 224 -8 262 -24 144
-112 263 -228 310 l-57 23 -2885 2 c-1655 0 -2901 -3 -2923 -8z"/>
<path d="M1673 8985 c-141 -43 -237 -162 -262 -325 -15 -91 -15 -7610 0 -7700
19 -121 80 -223 167 -278 101 -66 -20 -62 1992 -62 l1825 0 1398 1398 1397
1397 0 2626 c0 2589 0 2628 -20 2691 -25 82 -83 164 -144 205 -101 68 169 63
-3230 62 -2519 0 -3089 -3 -3123 -14z m6117 -2780 l0 -2395 -1238 0 c-1356 0
-1286 3 -1384 -59 -55 -35 -109 -104 -140 -181 l-23 -55 -3 -1248 -2 -1247
-1600 0 -1600 0 0 3783 c0 2081 3 3787 7 3790 3 4 1351 7 2995 7 l2988 0 0
-2395z m-126 -2917 c-66 -68 -598 -601 -1184 -1185 -586 -583 -1068 -1065
-1072 -1069 -5 -4 -8 529 -8 1184 l0 1192 1191 0 1192 0 -119 -122z"/>
<path d="M2613 7403 c-10 -3 -13 -53 -13 -199 l0 -194 2200 0 2200 0 0 194 c0
168 -2 195 -16 200 -19 7 -4353 7 -4371 -1z"/>
<path d="M2607 6203 c-4 -3 -7 -93 -7 -200 l0 -193 2200 0 2200 0 -2 198 -3
197 -2191 3 c-1205 1 -2194 -1 -2197 -5z"/>
<path d="M2602 4813 l3 -198 2195 0 2195 0 3 198 2 197 -2200 0 -2200 0 2
-197z"/>
</g>
</svg>
